<svg xmlns="http://www.w3.org/2000/svg" viewBox="0 0 900 700" preserveAspectRatio="xMidYMid slice">
  <defs>
    <linearGradient id="wall" x1="0" y1="0" x2="1" y2="1">
      <stop offset="0" stop-color="#EFE8DC"/><stop offset="1" stop-color="#E2D6C5"/>
    </linearGradient>
    <linearGradient id="floor" x1="0" y1="0" x2="0" y2="1">
      <stop offset="0" stop-color="#D8C7B2"/><stop offset="1" stop-color="#CBB79D"/>
    </linearGradient>
  </defs>
  <rect width="900" height="700" fill="url(#wall)"/>
  <rect y="480" width="900" height="220" fill="url(#floor)"/>
  <ellipse cx="640" cy="640" rx="260" ry="30" fill="#000" opacity="0.06"/>
  <rect x="560" y="60" width="280" height="300" rx="6" fill="#fff" opacity="0.35"/>
  <line x1="700" y1="60" x2="700" y2="360" stroke="#C9B89F" stroke-width="3"/>
  <line x1="560" y1="200" x2="840" y2="200" stroke="#C9B89F" stroke-width="3"/>
  <g>
    <rect x="430" y="430" width="360" height="120" rx="22" fill="#B89B7C"/>
    <rect x="445" y="370" width="330" height="90" rx="20" fill="#C9AE8E"/>
    <rect x="455" y="385" width="150" height="70" rx="16" fill="#D8C2A6"/>
    <rect x="615" y="385" width="150" height="70" rx="16" fill="#D8C2A6"/>
    <rect x="430" y="540" width="26" height="40" rx="6" fill="#7A6651"/>
    <rect x="764" y="540" width="26" height="40" rx="6" fill="#7A6651"/>
  </g>
  <rect x="360" y="470" width="50" height="80" rx="8" fill="#A8744F"/>
  <path d="M385 470 q-40 -70 -10 -120 q20 40 10 120" fill="#7C8C6A"/>
  <path d="M385 470 q40 -60 18 -118 q-26 36 -18 118" fill="#8E9C7C"/>
  <rect x="470" y="590" width="180" height="14" rx="6" fill="#9A7B57"/>
  <rect x="486" y="604" width="12" height="34" fill="#8A6C4B"/>
  <rect x="622" y="604" width="12" height="34" fill="#8A6C4B"/>
  <line x1="120" y1="560" x2="120" y2="360" stroke="#8A6C4B" stroke-width="6"/>
  <path d="M90 360 h60 l-12 -46 h-36 z" fill="#E7D9C2"/>
  <ellipse cx="120" cy="560" rx="40" ry="8" fill="#8A6C4B"/>
</svg>
